<svg width="460" height="197" viewBox="0 0 460 197" fill="none" xmlns="http://www.w3.org/2000/svg">
<path d="M129.631 143.813L111.3 175.722H111.292L109.836 178.256H101.562L103.818 196.991H90.6186L86.7698 165.092H93.9163V165.083H102.277L106.926 156.987H86.4512L63.4535 196.991H48.3254L78.8829 143.813H129.631Z" fill="#E74C40"/>
<path d="M170.607 143.813H185.735L155.186 196.991H151.269V197H133.506V196.991H129.821L125.645 165.1L137.88 143.813H153.008L139.154 167.946L140.936 183.827H147.609L170.607 143.813Z" fill="#E74C40"/>
<path d="M194.061 143.813L194.001 143.926L193.984 143.813L163.426 196.991H178.563L185.77 184.519L185.778 184.596L196.687 165.602L200.476 196.991H213.667L213.675 197L207.261 143.813H194.061Z" fill="#E74C40"/>
<path d="M279.25 143.813H264.114L258.439 153.7V153.683L256.984 156.217V156.208L246.067 175.212L242.287 143.813H229.079L222.087 156.001L216.715 165.342L219.341 187.131L231.705 165.602L235.493 196.991H248.684L248.701 197L279.25 143.813Z" fill="#E74C40"/>
<path d="M366.962 178.256L366.652 175.713L366.575 174.892L365.369 165.083L364.086 154.452H364.112L362.829 143.813H327.045L296.488 196.991H311.624L334.614 156.987H351.197L352.17 165.083H345.118V165.092H334.183L338.032 196.991H351.231L348.975 178.256H366.962Z" fill="#E74C40"/>
<path d="M276.004 163.82H306.605L299.036 176.993H268.436L276.004 163.82Z" fill="#E74C40"/>
<path d="M279.93 156.987L287.499 143.813H318.099L310.531 156.987H279.93Z" fill="#E74C40"/>
<path d="M264.51 183.818H295.11L287.542 196.991H256.941L264.51 183.818Z" fill="#E74C40"/>
<path d="M409.109 143.822L411.675 165.092H398.467L397.494 156.987H384.518L389.34 196.991H358.249L356.974 186.361L356.664 183.827H374.548L369.726 143.822H409.109Z" fill="#E74C40"/>
<path d="M68.8389 130.989C72.2333 136.896 80.7194 136.896 84.1138 130.989L151.758 13.289C155.152 7.3828 150.909 1.24777e-05 144.121 1.18815e-05L8.83208 0C2.04326 0 -2.19974 7.3828 1.19467 13.289L68.8389 130.989Z" fill="white"/>
<path d="M206.448 135.548C243.708 135.548 273.913 105.205 273.913 67.774C273.913 30.3435 243.708 0 206.448 0C169.188 0 138.983 30.3435 138.983 67.774C138.983 105.205 169.188 135.548 206.448 135.548Z" fill="white"/>
<path d="M281.192 8.85935C281.192 3.96646 285.141 0 290.011 0H339.838C344.709 0 348.657 3.96647 348.657 8.85935V126.689C348.657 131.582 344.709 135.548 339.838 135.548H290.011C285.141 135.548 281.192 131.582 281.192 126.689V8.85935Z" fill="white"/>
<path d="M364.756 0H392.975L392.977 0.00141042C430.033 0.240059 460 30.4914 460 67.774C460 105.057 430.033 135.308 392.977 135.547L392.975 135.548H364.756C359.885 135.548 355.937 131.582 355.937 126.689V8.85935C355.937 3.96646 359.885 0 364.756 0Z" fill="white"/>
</svg>
